<?xml version="1.0" encoding="utf-8"?>
<!-- Svg Vector Icons : http://www.onlinewebfonts.com/icon -->
<!DOCTYPE svg PUBLIC "-//W3C//DTD SVG 1.1//EN" "http://www.w3.org/Graphics/SVG/1.1/DTD/svg11.dtd">
<svg version="1.1" xmlns="http://www.w3.org/2000/svg" xmlns:xlink="http://www.w3.org/1999/xlink" x="0px" y="0px" viewBox="0 0 1000 1000" enable-background="new 0 0 1000 1000" xml:space="preserve">
<metadata> Svg Vector Icons : http://www.onlinewebfonts.com/icon </metadata>
<g><path d="M71.3,454.3L224.4,291h551.3v91.9c10.8,10.8,41.2,20.2,52.1,9.4l154-117c10.8-10.8,10.8-28.2,0-39l-154-117c-10.8-10.8-41.2-12.5-52.1-1.7v102.1H193.8L30.4,382.9C13.8,403.6,10,424.2,10,444.1C10,464.1,46.1,474.8,71.3,454.3z M928.9,546.2L776.2,709.3H226.3v-91.7c-10.8-10.8-41.1-20.2-51.9-9.4L20.8,725c-10.8,10.8-10.8,28.2,0,39l153.6,116.9c10.8,10.7,41.1,12.5,51.9,1.7V780.6h580.4l162.9-163.1c16.6-20.7,20.4-41.3,20.4-61.2S954,525.8,928.9,546.2z"/></g>
</svg>