<?xml version="1.0" encoding="utf-8"?>
<!-- Svg Vector Icons : http://www.onlinewebfonts.com/icon -->
<!DOCTYPE svg PUBLIC "-//W3C//DTD SVG 1.1//EN" "http://www.w3.org/Graphics/SVG/1.1/DTD/svg11.dtd">
<svg version="1.1" xmlns="http://www.w3.org/2000/svg" xmlns:xlink="http://www.w3.org/1999/xlink" x="0px" y="0px" viewBox="0 0 1000 1000" enable-background="new 0 0 1000 1000" xml:space="preserve">
<metadata> Svg Vector Icons : http://www.onlinewebfonts.com/icon </metadata>
<g><g transform="translate(0.000000,511.000000) scale(0.100000,-0.100000)"><path d="M6424.2,4146.8c-200.4-63.4-253.5-141.1-848.5-1245.1c-296.4-552-1187.8-2201.9-1981.1-3669.8c-881.2-1627.4-1453.6-2708.9-1470-2774.3c-51.1-196.3,32.7-343.5,220.8-394.6c53.2-14.3,276-20.4,617.4-16.3l535.7,6.1l110.4,61.3c61.3,32.7,137,94,169.7,132.9c57.2,67.5,3778.2,6930.7,3974.4,7327.4c104.3,212.6,118.6,343.5,49.1,455.9c-79.7,132.9-112.5,139-725.8,143.1C6628.7,4177.5,6506,4171.4,6424.2,4146.8z"/><path d="M1711.7,4128.4c-404.8-87.9-725.8-261.7-1016.1-552C6.7,2895.6-95.6,1838.6,446.2,1029C994.1,209.2,2071.6-87.3,2973.2,335.9c699.2,329.2,1149,1038.6,1149,1819.6c0,560.2-218.8,1065.2-629.7,1453.6c-290.3,274-621.5,447.7-1001.8,521.3C2302.6,4167.3,1885.5,4165.2,1711.7,4128.4z M2345.5,2801.6c184-63.4,351.6-233.1,417.1-419.1c45-130.8,38.8-345.5-10.2-480.4c-57.2-149.3-202.4-300.5-357.8-374.1c-102.2-47-151.3-55.2-286.2-57.2c-137,0-182,8.2-280.1,57.2c-147.2,71.6-274,198.3-341.4,341.4c-71.6,151.3-75.6,410.9-8.2,556.1c49.1,108.4,184,261.7,282.1,323C1920.3,2846.5,2151.3,2867,2345.5,2801.6z"/><path d="M7648.9,78.3c-466.1-71.6-858.7-263.7-1167.4-570.4c-267.8-265.8-445.7-570.4-541.8-930.2c-40.9-147.2-47-224.9-47-500.9c-2-278.1,6.1-353.7,45-500.9c153.3-560.2,511.1-1014.1,1012-1277.8c850.5-449.8,1905.4-235.1,2500.4,511.1c652.2,813.7,588.8,1966.8-147.2,2696.6c-247.4,245.3-599,441.6-928.2,523.4C8205,70.2,7783.8,98.8,7648.9,78.3z M8172.2-1295.5c143.1-69.5,249.4-171.7,325.1-314.9c65.4-118.6,71.6-143.1,71.6-312.8c0-222.9-45-333.2-204.4-492.7c-145.1-145.1-290.3-198.3-511.1-188.1c-269.9,14.3-468.2,147.2-584.7,394.6c-49.1,104.3-59.3,149.2-59.3,286.2c0,137,10.2,184,59.3,286.2c69.5,149.2,224.9,296.4,376.2,357.8C7787.9-1224,8037.3-1230.1,8172.2-1295.5z"/></g></g>
</svg>